<svg width="210" height="210" viewBox="0 0 210 210" fill="none" xmlns="http://www.w3.org/2000/svg">
<path d="M104.681 27.041H104.68C61.8001 27.0414 27.0383 61.812 27.0381 104.702C27.0386 147.592 61.8003 182.362 104.68 182.362C147.559 182.362 182.32 147.592 182.32 104.702C182.32 62.7437 149.054 28.5567 107.463 27.0908L154.793 12.7578C187.303 30.524 209.355 65.0377 209.355 104.703C209.355 134.552 196.867 161.484 176.833 180.557L209.359 209.355H107.942C106.858 209.389 105.77 209.407 104.678 209.407C46.8665 209.407 0.000260661 162.529 0 104.703C0.00060683 46.8779 46.8667 0.000433417 104.678 0H104.681V27.041Z" fill="#FF9933"/>
</svg>
